<svg xmlns="http://www.w3.org/2000/svg" viewBox="0 0 128 128" role="img" aria-label="Rook Bot">
  <defs>
    <radialGradient id="wood" cx="42%" cy="32%" r="68%">
      <stop offset="0%" stop-color="#2c2214"/>
      <stop offset="55%" stop-color="#14100a"/>
      <stop offset="100%" stop-color="#090706"/>
    </radialGradient>
    <linearGradient id="brass" x1="0%" y1="0%" x2="100%" y2="100%">
      <stop offset="0%" stop-color="#e8c86a"/>
      <stop offset="45%" stop-color="#d4a24e"/>
      <stop offset="100%" stop-color="#7a5820"/>
    </linearGradient>
    <linearGradient id="ivory" x1="50%" y1="0%" x2="50%" y2="100%">
      <stop offset="0%" stop-color="#f0e4c6"/>
      <stop offset="100%" stop-color="#a89070"/>
    </linearGradient>
  </defs>
  <circle cx="64" cy="64" r="60" fill="url(#wood)"/>
  <circle cx="64" cy="64" r="60" fill="none" stroke="url(#brass)" stroke-width="5"/>
  <circle cx="64" cy="64" r="54" fill="none" stroke="#d4a24e" stroke-opacity="0.35" stroke-width="1.5"/>
  <circle cx="64" cy="28" r="3.2" fill="#e0b45e" opacity="0.95"/>
  <circle cx="64" cy="28" r="1.4" fill="#100c08"/>
  <g fill="url(#ivory)" stroke="#1e1610" stroke-width="1.2" stroke-linejoin="round">
    <path d="M40 44h10v-8h8v8h12v-8h8v8h10v14H40z"/>
    <rect x="44" y="58" width="40" height="28" rx="2"/>
    <path d="M38 96c2-6 8-10 26-10s24 4 26 10c0 3-8 5-26 5s-26-2-26-5z"/>
    <ellipse cx="64" cy="100" rx="30" ry="5.5"/>
  </g>
  <circle cx="22" cy="64" r="2" fill="#d4a24e" opacity="0.6"/>
  <circle cx="106" cy="64" r="2" fill="#d4a24e" opacity="0.6"/>
</svg>
