<svg xmlns="http://www.w3.org/2000/svg" viewBox="0 0 128 160"><title>Thomas Danforth - original engraved-style portrait plate (CC0)</title><defs>
<radialGradient id="bgv" cx="50%" cy="38%" r="82%">
<stop offset="0%" stop-color="#f1e7cb"/><stop offset="100%" stop-color="#e8dcc0"/>
</radialGradient>
<pattern id="h1" width="4.6" height="4.6" patternUnits="userSpaceOnUse" patternTransform="rotate(38)">
<line x1="0" y1="0" x2="0" y2="4.6" stroke="#3a2a1a" stroke-width="0.75"/>
</pattern>
<pattern id="h2" width="3" height="3" patternUnits="userSpaceOnUse" patternTransform="rotate(38)">
<line x1="0" y1="0" x2="0" y2="3" stroke="#3a2a1a" stroke-width="0.75"/>
</pattern>
<pattern id="hx" width="3" height="3" patternUnits="userSpaceOnUse" patternTransform="rotate(38)">
<path d="M0 0V3M0 0H3" fill="none" stroke="#3a2a1a" stroke-width="0.65"/>
</pattern>
<pattern id="w1" width="4" height="4" patternUnits="userSpaceOnUse" patternTransform="rotate(38)">
<line x1="0" y1="0" x2="0" y2="4" stroke="#e9dab6" stroke-width="0.7"/>
</pattern>
<pattern id="fb" width="7" height="7" patternUnits="userSpaceOnUse" patternTransform="rotate(-32)">
<line x1="0" y1="0" x2="0" y2="7" stroke="#3a2a1a" stroke-width="0.5"/>
</pattern>
<clipPath id="ov"><ellipse cx="64" cy="80" rx="54.5" ry="68.5"/></clipPath>
</defs><rect width="128" height="160" fill="url(#bgv)"/><ellipse cx="64" cy="80" rx="60" ry="75" fill="none" stroke="#3a2a1a" stroke-width="2.6"/><ellipse cx="64" cy="80" rx="56.8" ry="71.8" fill="none" stroke="#3a2a1a" stroke-width="0.9"/><path d="M64 0.8 68.4 5.2 64 9.6 59.6 5.2Z" fill="#3a2a1a"/><circle cx="54.6" cy="4.6" r="1.1" fill="#3a2a1a"/><circle cx="73.4" cy="4.6" r="1.1" fill="#3a2a1a"/><g clip-path="url(#ov)"><rect x="2" y="2" width="124" height="156" fill="#dfcda6"/><rect x="2" y="2" width="124" height="156" fill="url(#fb)" opacity="0.15"/><path d="M18 154C21 108 44 93 55 90L73 90C84 93 107 108 110 154Z" fill="#3a2a1a"/><path d="M25 104q6 2 9 8" fill="none" stroke="#e9dab6" stroke-width="0.7" opacity="0.5"/><path d="M29 113q6 2 9 8" fill="none" stroke="#e9dab6" stroke-width="0.7" opacity="0.5"/><path d="M33 122q6 2 9 8" fill="none" stroke="#e9dab6" stroke-width="0.7" opacity="0.5"/><path d="M64 96L64 154" stroke="#241708" stroke-width="0.8" opacity="0.6"/><path d="M23 98Q64 116 105 98" fill="none" stroke="#241708" stroke-width="2.2"/><circle cx="64" cy="108" r="1.4" fill="#e9dab6" opacity="0.7"/><rect x="55.6" y="90" width="7.2" height="18" rx="1.6" fill="#f7efdb" stroke="#3a2a1a" stroke-width="0.7"/><path d="M59.2 92L59.2 106" stroke="#3a2a1a" stroke-width="0.45" opacity="0.6"/><rect x="65.2" y="90" width="7.2" height="18" rx="1.6" fill="#f7efdb" stroke="#3a2a1a" stroke-width="0.7"/><path d="M68.8 92L68.8 106" stroke="#3a2a1a" stroke-width="0.45" opacity="0.6"/><path d="M57 73L57 94Q64 97 71 94L71 73Z" fill="#edd9ac"/><path d="M57 81Q64 87 71 81L71 89Q64 92 57 89Z" fill="url(#h2)" opacity="0.5"/><path d="M64 40C78 41 79 47.6 79 56.8C79 66 70 80.5 64 82C58 80.5 49 66 49 56.8C49 47.6 50 41 64 40Z" fill="#edd9ac" stroke="#3a2a1a" stroke-width="1.1"/><path d="M78 46.3C79.5 53.9 79.5 61 77.5 67.7C76.5 73.6 71.2 79.1 69.7 79.9C71.5 70.2 71.8 60.2 68.5 50.9Z" fill="url(#h2)" opacity="0.42"/><path d="M50.5 42.5Q64 39.5 77.5 42.5L76.5 46.5Q64 43.5 51.5 46.5Z" fill="url(#h1)" opacity="0.25"/><path d="M76 61q-3 3 -4.5 7" fill="none" stroke="#3a2a1a" stroke-width="0.5" opacity="0.50"/><path d="M74.4 65.2q-4 3 -5.5 7" fill="none" stroke="#3a2a1a" stroke-width="0.5" opacity="0.50"/><path d="M72.8 69.4q-5 3 -6.5 7" fill="none" stroke="#3a2a1a" stroke-width="0.5" opacity="0.50"/><path d="M53.9 58.5Q57 55.8 60.1 58.5" fill="none" stroke="#241708" stroke-width="1.05" stroke-linecap="round"/><circle cx="56.5" cy="58.4" r="1.3" fill="#241708"/><path d="M55 59.7Q57 60.5 59 59.7" fill="none" stroke="#3a2a1a" stroke-width="0.45" opacity="0.65"/><path d="M53 53.4Q57 52.4 61 55.4" fill="none" stroke="#241708" stroke-width="1.15" stroke-linecap="round"/><path d="M65.3 58.5Q67.8 56.3 70.3 58.5" fill="none" stroke="#241708" stroke-width="1.05" stroke-linecap="round"/><circle cx="67.3" cy="58.4" r="1.1" fill="#241708"/><path d="M66.1 59.7Q67.8 60.5 69.5 59.7" fill="none" stroke="#3a2a1a" stroke-width="0.45" opacity="0.65"/><path d="M71.2 53.4Q67.8 52.4 64.4 55.4" fill="none" stroke="#241708" stroke-width="1.15" stroke-linecap="round"/><path d="M61.8 57C60.2 61.7 60.4 63.5 60.4 65.5C60.4 67.2 62 66.9 61.4 65.7" fill="none" stroke="#3a2a1a" stroke-width="0.9" stroke-linecap="round"/><path d="M57.8 73.6Q61.4 72.7 65 73.6" fill="none" stroke="#241708" stroke-width="0.95" stroke-linecap="round"/><path d="M59.4 75.7Q61.4 76.4 63.4 75.7" fill="none" stroke="#3a2a1a" stroke-width="0.45" opacity="0.6"/><path d="M55 46.3Q64 44.1 73 46.3" fill="none" stroke="#3a2a1a" stroke-width="0.65" opacity="0.75"/><path d="M56.5 49.7Q64 47.5 71.5 49.7" fill="none" stroke="#3a2a1a" stroke-width="0.65" opacity="0.75"/><path d="M54.8 57.7l-2.2 -1.1M54.8 59.4l-2.3 0.7" fill="none" stroke="#3a2a1a" stroke-width="0.65" opacity="0.75"/><path d="M73.2 57.7l2.2 -1.1M73.2 59.4l2.3 0.7" fill="none" stroke="#3a2a1a" stroke-width="0.65" opacity="0.75"/><path d="M59.6 66.5Q57.2 70.5 57.6 73.2" fill="none" stroke="#3a2a1a" stroke-width="0.65" opacity="0.75"/><path d="M65.2 66.5Q67.6 70.5 67.2 73.2" fill="none" stroke="#3a2a1a" stroke-width="0.65" opacity="0.75"/><path d="M46 47C45 35 57 31.5 64 31.5C71 31.5 83 35 82 47L79 48Q64 41 49 48Z" fill="#ddd1b0" stroke="#3a2a1a" stroke-width="0.8"/><path d="M64 31.5L64 41" stroke="#3a2a1a" stroke-width="0.6" opacity="0.7"/><path d="M50 38Q40.8 41.6 44 45.2Q40.8 48.8 42.6 52.4Q40.8 56 43.2 59.6Q40.8 63.2 45 66.8Q40.8 70.4 45.3 74Q40.8 77.6 43.7 81.2Q44 85.7 50 82.2Q52.6 77.6 50 74Q52.6 70.4 50 66.8Q52.6 63.2 50 59.6Q52.6 56 50 52.4Q52.6 48.8 50 45.2Q52.6 41.6 50 38Z" fill="#ddd1b0" stroke="#3a2a1a" stroke-width="0.8"/><path d="M49 48.8q-3.5 1 -4.5 4" fill="none" stroke="#3a2a1a" stroke-width="0.6" opacity="0.75"/><path d="M49 59.6q-3.5 1 -4.5 4" fill="none" stroke="#3a2a1a" stroke-width="0.6" opacity="0.75"/><path d="M49 70.4q-3.5 1 -4.5 4" fill="none" stroke="#3a2a1a" stroke-width="0.6" opacity="0.75"/><path d="M78 38Q87.2 41.6 84 45.2Q87.2 48.8 85.4 52.4Q87.2 56 84.8 59.6Q87.2 63.2 83 66.8Q87.2 70.4 82.7 74Q87.2 77.6 84.3 81.2Q84 85.7 78 82.2Q75.4 77.6 78 74Q75.4 70.4 78 66.8Q75.4 63.2 78 59.6Q75.4 56 78 52.4Q75.4 48.8 78 45.2Q75.4 41.6 78 38Z" fill="#ddd1b0" stroke="#3a2a1a" stroke-width="0.8"/><path d="M79 48.8q3.5 1 4.5 4" fill="none" stroke="#3a2a1a" stroke-width="0.6" opacity="0.75"/><path d="M79 59.6q3.5 1 4.5 4" fill="none" stroke="#3a2a1a" stroke-width="0.6" opacity="0.75"/><path d="M79 70.4q3.5 1 4.5 4" fill="none" stroke="#3a2a1a" stroke-width="0.6" opacity="0.75"/></g><ellipse cx="64" cy="80" rx="54.5" ry="68.5" fill="none" stroke="#3a2a1a" stroke-width="1.1"/></svg>